<svg width="203" height="254" viewBox="0 0 203 254" fill="none" xmlns="http://www.w3.org/2000/svg">
<path d="M41.2197 91.0829H21.5298C12.5765 91.0829 5.54825 98.4053 6.33466 106.914L9.64832 142.769H41.2201V91.0829H41.2197Z" fill="#D77F4A"/>
<path d="M80.7135 191.637C78.0316 191.637 17.6108 191.637 14.9099 191.637H14.4676C6.75358 191.637 0.5 197.89 0.5 205.604V234.515H95.2321V205.604C95.2317 198.389 89.6676 191.637 80.7135 191.637Z" fill="#0AB69F"/>
<path d="M33.2915 191.637C33.3873 199.606 39.8738 206.037 47.8657 206.037C55.8577 206.037 62.3438 199.606 62.44 191.637H33.2915Z" fill="#82AEE3"/>
<path d="M47.8656 196.182L33.2869 186.405L24.4635 190.656C23.4819 191.128 23.2806 192.439 24.0747 193.185L36.0077 204.392C36.5819 204.932 37.469 204.955 38.0712 204.447L47.8656 196.182Z" fill="#C0D6F2"/>
<path d="M47.8657 196.182L62.4444 186.405L71.2678 190.656C72.2494 191.128 72.4507 192.439 71.6566 193.185L59.7236 204.392C59.1494 204.932 58.2624 204.955 57.6602 204.447L47.8657 196.182Z" fill="#C0D6F2"/>
<path d="M62.4445 156.556H33.2871V186.405L47.8658 196.182L62.4445 186.405V156.556Z" fill="#FFB09E"/>
<path d="M80.7132 191.637C80.0067 191.637 75.2895 191.637 68.678 191.637C77.6321 191.637 83.1962 198.389 83.1962 205.604V234.515H95.2314V205.604C95.2314 198.389 89.6673 191.637 80.7132 191.637Z" fill="#01998D"/>
<path d="M71.2674 190.655L62.444 186.404L57.87 189.472L60.3262 190.655C61.3078 191.128 61.5091 192.439 60.7149 193.184L52.9526 200.475L57.6594 204.447C58.2615 204.955 59.1486 204.932 59.7228 204.392L71.6558 193.185C72.4503 192.439 72.249 191.128 71.2674 190.655V190.655Z" fill="#B2CAEC"/>
<path d="M33.2871 183.908C37.6513 185.868 42.4903 186.96 47.5846 186.96H48.0423C53.1771 186.96 58.053 185.851 62.4441 183.861V155.462H33.2871V183.908Z" fill="#FFA78F"/>
<path d="M30.6373 152.15H12.6135C6.0219 152.15 0.678101 146.806 0.678101 140.214C0.678101 133.623 6.0219 128.279 12.6135 128.279H30.6373V152.15Z" fill="#FFB09E"/>
<path d="M64.9863 128.279H82.9886C89.5802 128.279 94.924 133.623 94.924 140.214C94.924 146.806 89.5802 152.15 82.9886 152.15H64.9863V128.279Z" fill="#FFA78F"/>
<path d="M48.0424 181.49H47.5847C28.2952 181.49 12.6578 165.852 12.6578 146.563V133.865C12.6578 114.576 28.2952 98.9385 47.5847 98.9385H48.0424C67.3319 98.9385 82.9693 114.576 82.9693 133.865V146.563C82.9693 165.852 67.3319 181.49 48.0424 181.49V181.49Z" fill="#FFCEBF"/>
<path d="M48.0424 98.9389H47.5847C46.1811 98.9389 44.7973 99.0241 43.4371 99.1852C60.7715 101.236 74.2164 115.98 74.2164 133.866V146.563C74.2164 164.449 60.7715 179.192 43.4371 181.244C44.7973 181.405 46.1811 181.49 47.5847 181.49H48.0424C67.3319 181.49 82.9692 165.853 82.9692 146.563V133.866C82.9692 114.576 67.3319 98.9389 48.0424 98.9389V98.9389Z" fill="#FFB09E"/>
<path d="M73.3297 158.881H67.2324C65.6336 158.881 64.3375 157.586 64.3375 155.986C64.3375 154.387 65.6336 153.092 67.2324 153.092H73.3297C74.9285 153.092 76.2246 154.387 76.2246 155.986C76.2246 157.586 74.9285 158.881 73.3297 158.881V158.881Z" fill="#FE8F83"/>
<path d="M28.4993 158.881H22.402C20.8032 158.881 19.5071 157.586 19.5071 155.986C19.5071 154.387 20.8032 153.092 22.402 153.092H28.4993C30.0981 153.092 31.3942 154.387 31.3942 155.986C31.3942 157.586 30.0981 158.881 28.4993 158.881Z" fill="#FE8F83"/>
<path d="M81.6039 91.9009C78.8068 85.0667 72.0935 80.25 64.2521 80.25H35.8373C24.2793 80.25 14.9097 89.6196 14.9097 101.178C14.9097 115.88 26.619 127.839 41.2196 128.259V128.279H89.5922L91.5725 106.852C92.197 100.093 87.8887 94.0873 81.6039 91.9009V91.9009Z" fill="#D77F4A"/>
<path d="M81.6041 91.9009C78.807 85.0667 72.0937 80.25 64.2523 80.25H52.217C60.0585 80.25 66.7718 85.0667 69.5689 91.9009C75.8537 94.0873 80.1619 100.093 79.5374 106.852L77.5572 128.279H89.5924L91.5726 106.852C92.1971 100.093 87.8889 94.0873 81.6041 91.9009V91.9009Z" fill="#C86D36"/>
<path d="M30.3293 148.903C28.7305 148.903 27.4344 147.608 27.4344 146.009V139.529C27.4344 137.931 28.7305 136.634 30.3293 136.634C31.9281 136.634 33.2242 137.93 33.2242 139.529V146.009C33.2242 147.607 31.9281 148.903 30.3293 148.903Z" fill="#5A5A5A"/>
<path d="M64.6785 148.903C63.0797 148.903 61.7836 147.608 61.7836 146.009V139.529C61.7836 137.931 63.0797 136.634 64.6785 136.634C66.2773 136.634 67.5733 137.93 67.5733 139.529V146.009C67.5733 147.607 66.2773 148.903 64.6785 148.903V148.903Z" fill="#5A5A5A"/>
<path d="M58.4873 156.351C58.4873 162.246 53.7083 167.025 47.8135 167.025C41.9186 167.025 37.1396 162.246 37.1396 156.351H58.4873Z" fill="#FFB09E"/>
<path d="M201.25 234.515H105.754V205.471C105.754 197.177 112.477 190.454 120.771 190.454H168.866L176.905 191.858L186.232 190.454C194.526 190.454 201.249 197.177 201.249 205.471V234.515H201.25Z" fill="#C0D6F2"/>
<path d="M174.425 194.162C163.082 194.162 153.886 184.966 153.886 173.623C153.886 162.28 163.082 153.084 174.425 153.084C185.768 153.084 194.964 162.28 194.964 173.623C194.964 184.966 185.768 194.162 174.425 194.162Z" fill="#5A5A5A"/>
<path d="M174.425 153.084C172.535 153.084 170.706 153.345 168.968 153.823C177.661 156.214 184.049 164.17 184.049 173.623C184.049 183.076 177.661 191.032 168.968 193.423C170.706 193.901 172.535 194.162 174.425 194.162C185.768 194.162 194.964 184.966 194.964 173.623C194.964 162.28 185.768 153.084 174.425 153.084Z" fill="#444444"/>
<path d="M186.233 190.453H176.409C184.703 190.453 191.426 197.177 191.426 205.471V234.515H201.25V205.471C201.25 197.177 194.526 190.453 186.233 190.453Z" fill="#B2CAEC"/>
<path d="M120.987 190.453H186.016V234.515H120.987V190.453Z" fill="#528FD8"/>
<path d="M153.886 205.438C145.612 205.438 138.905 198.73 138.905 190.457V154.405H168.867V190.457C168.867 198.73 162.16 205.438 153.886 205.438Z" fill="#FFB09E"/>
<path d="M138.905 188.631C143.457 190.703 148.515 191.858 153.843 191.858C159.204 191.858 164.292 190.688 168.867 188.59V154.405H138.905V188.631Z" fill="#FFA78F"/>
<path d="M136.182 154.08H117.668C110.891 154.08 105.397 148.586 105.397 141.809C105.397 135.032 110.891 129.538 117.668 129.538H136.182V154.08Z" fill="#FFB09E"/>
<path d="M171.479 129.538H189.993C196.77 129.538 202.264 135.032 202.264 141.809C202.264 148.586 196.77 154.08 189.993 154.08H171.479V129.538Z" fill="#FFA78F"/>
<path d="M153.843 184.217C133.905 184.217 117.743 168.055 117.743 148.118V135.516C117.743 115.579 133.905 99.4169 153.842 99.4169C173.78 99.4169 189.942 115.579 189.942 135.516V148.118C189.943 168.055 173.78 184.217 153.843 184.217V184.217Z" fill="#FFCEBF"/>
<path d="M153.843 99.4169C152.176 99.4169 150.537 99.5322 148.931 99.7509C166.544 102.147 180.118 117.246 180.118 135.517V148.118C180.118 166.389 166.544 181.487 148.931 183.883C150.537 184.102 152.176 184.217 153.842 184.217C173.78 184.217 189.942 168.055 189.942 148.117V135.516C189.943 115.579 173.78 99.4169 153.843 99.4169V99.4169Z" fill="#FFB09E"/>
<path d="M153.843 184.217C133.905 184.217 117.743 168.055 117.743 148.118V135.516C117.743 115.579 133.905 99.4169 153.842 99.4169C173.78 99.4169 189.942 115.579 189.942 135.516V148.118C189.943 168.055 173.78 184.217 153.843 184.217V184.217Z" fill="#FFCEBF"/>
<path d="M171.479 150.645C169.884 150.645 168.591 149.353 168.591 147.757V141.099C168.591 139.504 169.884 138.211 171.479 138.211H174.341C175.936 138.211 177.229 139.504 177.229 141.099C177.229 142.686 175.95 143.973 174.367 143.987V147.757C174.367 149.353 173.074 150.645 171.479 150.645Z" fill="#5A5A5A"/>
<path d="M136.182 150.645C134.587 150.645 133.294 149.353 133.294 147.757V143.987C131.711 143.973 130.432 142.686 130.432 141.099C130.432 139.504 131.725 138.211 133.32 138.211H136.182C137.778 138.211 139.07 139.504 139.07 141.099V147.757C139.07 149.353 137.777 150.645 136.182 150.645V150.645Z" fill="#5A5A5A"/>
<path d="M153.843 99.4169C152.364 99.4169 150.908 99.5078 149.476 99.6803C167.355 101.836 181.21 117.057 181.21 135.516V148.117C181.21 166.577 167.355 181.798 149.476 183.954C150.908 184.126 152.364 184.217 153.842 184.217C173.78 184.217 189.942 168.055 189.942 148.117V135.516C189.943 115.579 173.78 99.4169 153.843 99.4169V99.4169Z" fill="#FFB09E"/>
<path d="M121.056 129.538H111.305V122.632C111.305 101.74 128.242 84.8038 149.133 84.8038H149.238C153.11 84.8038 156.249 87.9425 156.249 91.8149V94.3454C156.249 113.782 140.493 129.538 121.056 129.538Z" fill="#5A5A5A"/>
<path d="M194.964 129.538H154.966C140.6 129.538 128.954 117.893 128.954 103.527C128.954 93.1861 137.337 84.8033 147.677 84.8033H158.864C178.802 84.8033 194.964 100.966 194.964 120.903V129.538H194.964Z" fill="#5A5A5A"/>
<path d="M158.864 84.8033H147.949C167.886 84.8033 184.049 100.966 184.049 120.903V129.538H194.964V120.903C194.964 100.966 178.801 84.8033 158.864 84.8033V84.8033Z" fill="#444444"/>
<path d="M178.925 159.059H172.842C171.247 159.059 169.954 157.766 169.954 156.171C169.954 154.576 171.247 153.283 172.842 153.283H178.925C180.52 153.283 181.813 154.576 181.813 156.171C181.813 157.766 180.52 159.059 178.925 159.059Z" fill="#FE8F83"/>
<path d="M134.2 159.059H128.117C126.522 159.059 125.229 157.766 125.229 156.171C125.229 154.576 126.522 153.283 128.117 153.283H134.2C135.795 153.283 137.088 154.576 137.088 156.171C137.088 157.766 135.795 159.059 134.2 159.059Z" fill="#FE8F83"/>
<path d="M164.485 159.059C164.485 164.954 159.706 169.733 153.812 169.733C147.917 169.733 143.138 164.954 143.138 159.059H164.485Z" fill="#FFB09E"/>
<path d="M83.523 220.283H82.2424C75.2872 220.283 69.6488 225.921 69.6488 232.876V253.514H133.876V232.876C133.876 225.921 128.237 220.283 121.282 220.283H83.523Z" fill="#F07281"/>
<path d="M121.282 220.283H110.968C117.923 220.283 123.561 225.921 123.561 232.876V253.514H133.876V232.876C133.876 225.921 128.238 220.283 121.282 220.283Z" fill="#EB5569"/>
<path d="M101.721 233.546C95.6626 233.546 90.7513 228.636 90.7513 222.577V196.18H112.689V222.578C112.689 228.636 107.779 233.546 101.721 233.546Z" fill="#FFB09E"/>
<path d="M90.7513 221.015C94.0914 222.521 97.8007 223.366 101.712 223.366C105.63 223.366 109.345 222.518 112.689 221.008V196.18H90.7513V221.015Z" fill="#FFA78F"/>
<path d="M140.773 223.648H146.255V208.554C146.255 199.738 139.109 192.592 130.294 192.592H124.812V207.686C124.812 216.501 131.958 223.648 140.773 223.648Z" fill="#5A5A5A"/>
<path d="M130.294 192.592H124.812V193.05C131.791 194.756 136.972 201.048 136.972 208.553V223.188C138.191 223.486 139.463 223.648 140.774 223.648H146.256V208.553C146.256 199.738 139.109 192.592 130.294 192.592V192.592Z" fill="#444444"/>
<path d="M62.586 223.648H57.1042V208.554C57.1042 199.738 64.2506 192.592 73.0659 192.592H78.5476V207.686C78.5476 216.501 71.4013 223.648 62.586 223.648Z" fill="#5A5A5A"/>
<path d="M88.7991 196.18H75.2037C70.2401 196.18 66.2163 192.156 66.2163 187.193C66.2163 182.229 70.2401 178.205 75.2037 178.205H88.7991V196.18Z" fill="#FFB09E"/>
<path d="M114.56 178.205H128.156C133.12 178.205 137.143 182.229 137.143 187.192C137.143 192.156 133.12 196.18 128.156 196.18H114.56V178.205Z" fill="#FFA78F"/>
<path d="M101.712 156.151C87.1122 156.151 75.2775 167.84 75.2775 182.259V184.024V192.142C75.2775 206.562 87.1126 218.251 101.712 218.251C116.311 218.251 128.146 206.562 128.146 192.142V182.259C128.146 167.84 116.311 156.151 101.712 156.151V156.151Z" fill="#FFCEBF"/>
<path d="M101.712 156.151C100.32 156.151 98.9531 156.259 97.6189 156.464C110.274 158.407 119.96 169.215 119.96 182.259V192.142C119.96 205.186 110.275 215.994 97.6189 217.938C98.9531 218.143 100.319 218.251 101.712 218.251C116.311 218.251 128.147 206.562 128.147 192.143V182.259C128.146 167.84 116.311 156.151 101.712 156.151V156.151Z" fill="#FFB09E"/>
<path d="M87.8365 201.572H83.3079C81.9518 201.572 80.8525 200.473 80.8525 199.117C80.8525 197.761 81.9518 196.662 83.3079 196.662H87.8365C89.1926 196.662 90.2919 197.761 90.2919 199.117C90.2919 200.473 89.1926 201.572 87.8365 201.572Z" fill="#FE8F83"/>
<path d="M120.217 201.572H115.688C114.332 201.572 113.233 200.473 113.233 199.117C113.233 197.761 114.332 196.662 115.688 196.662H120.217C121.573 196.662 122.672 197.761 122.672 199.117C122.672 200.473 121.573 201.572 120.217 201.572Z" fill="#FE8F83"/>
<path d="M104.482 140.907C102.935 140.907 101.68 142.162 101.68 143.709C101.68 142.162 100.425 140.907 98.8776 140.907C82.1754 140.907 68.6355 154.447 68.6355 171.149V178.205H86.2828C94.7864 178.205 101.68 171.312 101.68 162.808C101.681 171.312 108.574 178.205 117.078 178.205H134.725V171.149C134.724 154.447 121.184 140.907 104.482 140.907Z" fill="#5A5A5A"/>
<path d="M104.482 140.907C103.679 140.907 102.957 141.246 102.447 141.787C115.648 145.035 125.441 156.946 125.441 171.149V178.205H134.724V171.149C134.724 154.447 121.185 140.907 104.482 140.907Z" fill="#444444"/>
<path d="M101.762 210.301C96.4815 210.301 92.1854 205.883 92.1854 200.452C92.1854 198.719 93.5903 197.314 95.3234 197.314C97.0565 197.314 98.4613 198.719 98.4613 200.452C98.4613 202.422 99.942 204.025 101.762 204.025C103.582 204.025 105.063 202.423 105.063 200.452C105.063 198.719 106.467 197.314 108.201 197.314C109.934 197.314 111.339 198.719 111.339 200.452C111.339 205.883 107.043 210.301 101.762 210.301V210.301Z" fill="#FFA799"/>
<path d="M114.147 194.775C112.414 194.775 111.009 193.37 111.009 191.637V187.778C111.009 186.045 112.414 184.64 114.147 184.64H116.216C117.949 184.64 119.354 186.045 119.354 187.778C119.354 189.136 118.492 190.292 117.285 190.729V191.637C117.285 193.37 115.881 194.775 114.147 194.775Z" fill="#5A5A5A"/>
<path d="M89.3776 194.775C87.6445 194.775 86.2396 193.37 86.2396 191.637V190.73C85.0324 190.293 84.1705 189.136 84.1705 187.779C84.1705 186.045 85.5754 184.641 87.3085 184.641H89.3776C91.1107 184.641 92.5155 186.045 92.5155 187.779V191.638C92.5155 193.37 91.1107 194.775 89.3776 194.775Z" fill="#5A5A5A"/>
<path d="M167.517 197.515L152.877 201.153L153.724 198.985C154.197 197.773 153.812 196.395 152.779 195.606C151.4 194.551 149.411 194.926 148.511 196.411L142.855 205.745C142.393 206.401 142.019 207.127 141.759 207.91L126.587 253.513H145.329L152.193 218.358L169.31 200.622C169.645 200.275 169.833 199.81 169.833 199.327C169.833 198.113 168.694 197.223 167.517 197.515Z" fill="#FFCEBF"/>
<path d="M167.517 197.515L162.62 198.732C162.683 198.918 162.719 199.117 162.719 199.326C162.719 199.81 162.531 200.274 162.195 200.622L145.079 218.358L138.215 253.514H145.33L152.194 218.358L169.31 200.623C169.646 200.275 169.834 199.81 169.834 199.327C169.833 198.114 168.694 197.223 167.517 197.515V197.515Z" fill="#FFB09E"/>
<path d="M59.251 205.745L53.5948 196.411C52.6951 194.926 50.706 194.551 49.3271 195.606C48.2944 196.396 47.9089 197.773 48.3816 198.985L49.2285 201.153L34.5889 197.515C33.4117 197.223 32.2727 198.113 32.2727 199.326C32.2727 199.81 32.4602 200.274 32.7962 200.622L49.9126 218.358L56.7765 253.513H75.5186L60.347 207.91C60.0869 207.127 59.7132 206.401 59.251 205.745V205.745Z" fill="#FFCEBF"/>
<g clip-path="url(#clip0_199:2860)">
<path d="M92.3403 68.4492C92.4562 69.0854 92.4337 69.8412 92.4337 70.7937C92.4337 76.1042 96.5329 80.25 101.75 80.25C106.874 80.25 111.066 76.0575 111.066 70.9336C111.066 69.8253 111.045 69.0823 111.16 68.4492L101.75 63.791L92.3403 68.4492Z" fill="#E6F7FF"/>
<path d="M111.066 70.9336C111.066 69.8251 111.045 69.0821 111.16 68.4492L101.75 63.791V80.25C106.874 80.25 111.066 76.0575 111.066 70.9336Z" fill="#CCEEFF"/>
<path d="M118.473 48.4655C113.954 54.428 111.392 61.3222 111.16 68.4492H92.3404C92.0609 61.5551 89.4988 54.7075 84.7009 47.9997C81.4867 43.5278 80.1824 38.0311 81.0209 32.5344C82.864 20.6157 92.3124 14.883 101.75 14.9202C112.125 14.9575 122.487 21.9712 122.709 35.4024C122.749 40.2919 121.341 44.6247 118.473 48.4655V48.4655Z" fill="#FFE666"/>
<path d="M101.75 10.2217C100.463 10.2217 99.4209 9.17995 99.4209 7.89258V3.0791C99.4209 1.79173 100.463 0.75 101.75 0.75C103.037 0.75 104.079 1.79173 104.079 3.0791V7.89258C104.079 9.17995 103.037 10.2217 101.75 10.2217Z" fill="#FFE666"/>
<path d="M123.94 23.0317C123.294 21.9172 123.676 20.4933 124.791 19.8497L128.826 17.5206C129.94 16.8747 131.364 17.2568 132.006 18.3735C132.652 19.4881 132.27 20.9119 131.155 21.5556L127.12 23.8847C125.996 24.5301 124.574 24.137 123.94 23.0317Z" fill="#FABE2C"/>
<path d="M71.4945 53.31C70.8486 52.1955 71.2307 50.7716 72.3451 50.128L76.3802 47.7989C77.4901 47.1575 78.9186 47.5373 79.5601 48.6518C80.206 49.7664 79.8239 51.1902 78.7093 51.8338L74.6742 54.1629C73.5508 54.8081 72.1285 54.416 71.4945 53.31V53.31Z" fill="#FFE666"/>
<path d="M114.56 13.6538C113.445 13.0101 113.063 11.5864 113.709 10.4718L116.038 6.43904C116.675 5.32232 118.104 4.95152 119.218 5.58613C120.333 6.22989 120.715 7.65359 120.069 8.76814L117.74 12.8009C117.106 13.9105 115.681 14.2974 114.56 13.6538V13.6538Z" fill="#FABE2C"/>
<path d="M85.76 12.801L83.4309 8.76821C82.785 7.65366 83.1671 6.2298 84.2817 5.58619C85.3916 4.94476 86.8201 5.32005 87.4615 6.43911L89.7906 10.4719C90.4366 11.5864 90.0544 13.0103 88.9399 13.6539C87.8205 14.2966 86.3948 13.9118 85.76 12.801V12.801Z" fill="#FFE666"/>
<path d="M128.826 54.163L124.791 51.8339C123.676 51.1901 123.294 49.7664 123.94 48.6518C124.581 47.5396 126.014 47.1643 127.12 47.7989L131.155 50.128C132.269 50.7718 132.651 52.1955 132.005 53.31C131.373 54.4137 129.952 54.8094 128.826 54.163Z" fill="#FABE2C"/>
<path d="M76.3802 23.8846L72.3451 21.5555C71.2307 20.9118 70.8486 19.4881 71.4945 18.3735C72.136 17.259 73.5643 16.8815 74.6742 17.5206L78.7093 19.8497C79.8239 20.4935 80.206 21.9172 79.5601 23.0317C78.9264 24.1373 77.5046 24.5301 76.3802 23.8846Z" fill="#FFE666"/>
<path d="M134.357 38.1709H129.699C128.412 38.1709 127.37 37.1292 127.37 35.8418C127.37 34.5544 128.412 33.5127 129.699 33.5127H134.357C135.645 33.5127 136.687 34.5544 136.687 35.8418C136.687 37.1292 135.645 38.1709 134.357 38.1709Z" fill="#FABE2C"/>
<path d="M73.8008 38.1709H69.1426C67.8552 38.1709 66.8135 37.1292 66.8135 35.8418C66.8135 34.5544 67.8552 33.5127 69.1426 33.5127H73.8008C75.0882 33.5127 76.1299 34.5544 76.1299 35.8418C76.1299 37.1292 75.0882 38.1709 73.8008 38.1709Z" fill="#FFE666"/>
<path d="M104.079 7.89258V3.0791C104.079 1.79173 103.037 0.75 101.75 0.75V10.2217C103.037 10.2217 104.079 9.17995 104.079 7.89258Z" fill="#FABE2C"/>
<path d="M118.473 48.4655C113.955 54.428 111.392 61.3222 111.16 68.4492H101.75V14.9203C112.125 14.9575 122.487 21.9712 122.709 35.4024C122.749 40.2919 121.342 44.6247 118.473 48.4655V48.4655Z" fill="#FABE2C"/>
<path d="M104.079 49.8164V41.4644L108.055 37.4886C108.965 36.5789 108.965 35.1048 108.055 34.1951C107.145 33.2854 105.671 33.2854 104.761 34.1951L101.75 37.2065V52.1455C103.037 52.1455 104.079 51.1037 104.079 49.8164V49.8164Z" fill="#FF9100"/>
</g>
<defs>
<clipPath id="clip0_199:2860">
<rect width="79.5" height="79.5" fill="white" transform="translate(62 0.75)"/>
</clipPath>
</defs>
</svg>
